<?xml version="1.0" encoding="utf-8"?>
<svg version="1.1" xmlns:xlink="http://www.w3.org/1999/xlink" width="58px" height="122px" xmlns="http://www.w3.org/2000/svg">
  <g transform="matrix(1 0 0 1 -30 -543 )">
    <path d="M 56.08680555555555 2.263671875  C 57.362268518518526 3.7727864583333153  58 5.559895833333315  58 7.625  L 58 114.375  C 58 116.44010416666666  57.362268518518526 118.22721354166666  56.08680555555555 119.736328125  C 54.811342592592595 121.24544270833334  53.30092592592593 122  51.55555555555555 122  C 49.81018518518519 122  48.299768518518526 121.24544270833334  47.02430555555555 119.736328125  L 1.9131944444444444 66.361328125  C 0.6377314814814824 64.85221354166666  0 63.06510416666666  0 61  C 0 58.93489583333333  0.6377314814814824 57.14778645833333  1.9131944444444444 55.638671875  L 47.02430555555555 2.263671875  C 48.299768518518526 0.7545572916666576  49.81018518518519 0  51.55555555555555 0  C 53.30092592592593 0  54.811342592592595 0.7545572916666576  56.08680555555555 2.263671875  Z " fill-rule="nonzero" fill="#000000" stroke="none" transform="matrix(1 0 0 1 30 543 )" />
  </g>
</svg>