<?xml version="1.0" encoding="utf-8"?>
<svg version="1.1" xmlns:xlink="http://www.w3.org/1999/xlink" width="58px" height="122px" xmlns="http://www.w3.org/2000/svg">
  <g transform="matrix(1 0 0 1 -1838 -543 )">
    <path d="M 56.08680555555555 55.638671875  C 57.362268518518526 57.14778645833333  58 58.93489583333333  58 61  C 58 63.06510416666666  57.362268518518526 64.85221354166666  56.08680555555555 66.361328125  L 10.975694444444445 119.736328125  C 9.700231481481483 121.24544270833334  8.189814814814817 122  6.444444444444444 122  C 4.699074074074074 122  3.1886574074074074 121.24544270833334  1.9131944444444444 119.736328125  C 0.6377314814814815 118.22721354166666  0 116.44010416666666  0 114.375  L 0 7.625  C 0 5.559895833333315  0.6377314814814815 3.7727864583333153  1.9131944444444444 2.263671875  C 3.1886574074074074 0.7545572916666576  4.699074074074074 0  6.444444444444444 0  C 8.189814814814817 0  9.700231481481483 0.7545572916666576  10.975694444444445 2.263671875  L 56.08680555555555 55.638671875  Z " fill-rule="nonzero" fill="#000000" stroke="none" transform="matrix(1 0 0 1 1838 543 )" />
  </g>
</svg>