<?xml version="1.0" encoding="utf-8"?>
<svg version="1.1" xmlns:xlink="http://www.w3.org/1999/xlink" width="1443px" height="524px" xmlns="http://www.w3.org/2000/svg">
  <g transform="matrix(1 0 0 1 -261 -142 )">
    <path d="M 1346.3705357142858 108.58425504229015  C 1410.7901785714284 142.10843634786377  1443 178.644111906311  1443 218.19128171763174  C 1443 257.7384515289525  1410.7901785714284 294.2741270873996  1346.3705357142858 327.79830839297335  C 1281.950892857143 361.322489698547  1194.4475446428573 387.80091086532207  1083.8604910714284 407.23357189329863  C 973.2734375000001 426.6662329212752  852.4866071428571 436.3825634352635  721.5 436.3825634352635  C 683.921875 436.3825634352635  645.0016741071429 435.4734330947734  604.7393973214286 433.6551724137931  C 498.4469866071429 473.4296248102364  374.9760044642858 500.93081761006283  234.32645089285714 516.1587508132726  C 208.0217633928572 519.3407070049881  177.4224330357143 521.840815441336  142.52845982142856 523.6590761223163  C 133.40234375 524.1136412925613  125.21568080357143 523.09086965951  117.96847098214285 520.5907612231621  C 110.72126116071428 518.0906527868142  106.0239955357143 514.7950553025374  103.87667410714285 510.7039687703318  L 103.87667410714285 510.36304489264796  C 102.2661830357143 509.4539145521579  102.13197544642858 508.09021904142276  103.47405133928572 506.27195836044245  C 104.81612723214288 504.45369767946215  105.35295758928574 503.31728475384944  105.08454241071428 502.8627195836044  C 104.81612723214288 502.40815441335934  106.0239955357143 501.3285621340273  108.70814732142857 499.6239427456083  L 113.53962053571428 496.5556278464542  C 113.53962053571428 496.5556278464542  115.41852678571429 495.58967685968344  119.17633928571428 493.65777488614185  C 122.9341517857143 491.72587291260027  125.08147321428574 490.7031012795489  125.61830357142857 490.5894599869876  C 129.37611607142858 488.7711993060074  137.69698660714286 484.8505747126437  150.58091517857144 478.8275862068965  C 163.46484375 472.8045977011494  172.72516741071428 468.48622858382134  178.36188616071428 465.8724788549122  C 183.9986049107143 463.258729126003  192.31947544642858 458.769898069833  203.32449776785714 452.4059856864021  C 214.32952008928572 446.0420733029711  223.05301339285714 440.24636738234653  229.49497767857144 435.0188679245283  C 235.9369419642857 429.7913684667101  243.1841517857143 423.08653220559535  251.23660714285714 414.90435914118416  C 259.2890625 406.7221860767729  266.26785714285717 398.0854478421167  272.17299107142856 388.99414443721537  C 187.890625 368.7659943613098  121.45786830357143 343.7649099978313  72.87472098214286 313.99089134677945  C 24.291573660714285 284.21687269572755  0 252.28366948601172  0 218.19128171763174  C 0 188.64454565170243  19.057477678571427 160.40468445022773  57.172433035714285 133.47169811320757  C 95.28738839285714 106.53871177618741  146.5546875 83.29906744740835  210.97433035714286 63.75276512687053  C 275.3939732142857 44.20646280633264  352.16071428571433 28.69442637171972  441.2745535714286 17.21665582303188  C 530.3883928571429 5.738885274343921  623.796875 0  721.5 0  C 852.4866071428571 0  973.2734375000001 9.716330513988291  1083.8604910714284 29.14899154196487  C 1194.4475446428573 48.581652569941454  1281.950892857143 75.06007373671648  1346.3705357142858 108.58425504229015  Z " fill-rule="nonzero" fill="#ffffff" stroke="none" transform="matrix(1 0 0 1 261 142 )" />
  </g>
</svg>